<svg xmlns="http://www.w3.org/2000/svg" width="22" height="22" viewBox="0 0 22 22" fill="none">
  <path d="M13.5012 1.5901C14.2367 1.20983 15.0381 1.00856 15.8508 1.00003C16.5329 0.997491 17.2085 1.1445 17.8383 1.43249C18.4687 1.72076 19.0405 2.14449 19.5202 2.67885C20 3.21321 20.3778 3.84748 20.6318 4.54447C20.8858 5.24147 21.0107 5.98718 20.9993 6.73796L20.9991 6.75209C20.9991 8.74282 20.2017 10.6135 18.6461 12.7316C17.0818 14.8618 14.8297 17.1392 12.0419 19.9585L12.0408 19.9597L11.0028 21L9.95973 19.9433C7.17156 17.1287 4.91819 14.8524 3.35364 12.7241C1.79807 10.608 1.00082 8.73914 1.00082 6.75209L1.00071 6.73796C0.989319 5.98718 1.11426 5.24147 1.36823 4.54447C1.6222 3.84748 2.00009 3.21321 2.47976 2.67885C2.95942 2.14449 3.53124 1.72076 4.16169 1.43249C4.7915 1.1445 5.4672 0.997491 6.14927 1.00003C6.96193 1.00856 7.76334 1.20983 8.49882 1.5901C9.23491 1.97071 9.88758 2.52165 10.4122 3.20525L11 3.97118L11.5878 3.20525C12.1124 2.52165 12.7651 1.97071 13.5012 1.5901Z" fill="white" stroke="#B2B2B2"/>
</svg>